<svg xmlns="http://www.w3.org/2000/svg" width="1200" height="800" style="font-family:Segoe UI,system-ui,sans-serif">
<rect width="1200" height="800" fill="#0f1117"/>
<!-- Accounts -->
<rect x="0" y="0" width="220" height="800" fill="#1a1d27" stroke="#2e3347" stroke-width="1"/>
<text x="16" y="36" fill="#5b8dee" font-size="16" font-weight="700">🏦 BankingAPI</text>
<text x="16" y="52" fill="#94a3b8" font-size="10">Demo Interface v1.0</text>
<line x1="0" y1="62" x2="220" y2="62" stroke="#2e3347"/>
<text x="16" y="76" fill="#94a3b8" font-size="9" font-weight="600">CUENTA</text>
<rect x="8" y="80" width="204" height="28" rx="6" fill="none"/>
<text x="28" y="98" fill="#e2e8f0" font-size="13">🔑 Login</text>
<rect x="8" y="114" width="204" height="28" rx="6" fill="none"/>
<text x="28" y="132" fill="#e2e8f0" font-size="13">✏️ Registro</text>
<text x="16" y="162" fill="#94a3b8" font-size="9" font-weight="600">BANCA</text>
<rect x="8" y="166" width="204" height="28" rx="6" fill="#5b8dee"/>
<text x="28" y="184" fill="#fff" font-size="13">💳 Cuentas</text>
<rect x="8" y="200" width="204" height="28" rx="6" fill="none"/>
<text x="28" y="218" fill="#e2e8f0" font-size="13">↔️ Transferir</text>
<rect x="8" y="234" width="204" height="28" rx="6" fill="none"/>
<text x="28" y="252" fill="#e2e8f0" font-size="13">📋 Transacciones</text>
<text x="16" y="282" fill="#94a3b8" font-size="9" font-weight="600">ADMIN</text>
<rect x="8" y="286" width="204" height="28" rx="6" fill="none"/>
<text x="28" y="304" fill="#e2e8f0" font-size="13">➕ Nueva Cuenta</text>
<rect x="8" y="320" width="204" height="28" rx="6" fill="none"/>
<text x="28" y="338" fill="#e2e8f0" font-size="13">🔍 Audit Logs</text>
<text x="16" y="368" fill="#94a3b8" font-size="9" font-weight="600">AYUDA</text>
<rect x="8" y="372" width="204" height="28" rx="6" fill="none"/>
<text x="28" y="390" fill="#e2e8f0" font-size="13">📡 API Reference</text>
<text x="252" y="52" fill="#e2e8f0" font-size="22" font-weight="600">💳 Mis Cuentas</text>
<text x="252" y="72" fill="#94a3b8" font-size="13">Lista de cuentas bancarias visibles según tu rol.</text>
<rect x="252" y="90" width="916" height="380" rx="10" fill="#1a1d27" stroke="#2e3347" stroke-width="1"/>
<text x="272" y="118" fill="#e2e8f0" font-size="13" font-weight="600">Cuentas Bancarias</text>
<rect x="1058" y="100" width="90" height="28" rx="6" fill="#232636" stroke="#2e3347" stroke-width="1"/>
<text x="1103" y="118" fill="#e2e8f0" font-size="11" text-anchor="middle">🔄 Actualizar</text>
<rect x="252" y="130" width="916" height="30" fill="#232636"/>
<text x="272" y="149" fill="#94a3b8" font-size="10" font-weight="600">ID</text>
<text x="307" y="149" fill="#94a3b8" font-size="10" font-weight="600">NÚMERO</text>
<text x="442" y="149" fill="#94a3b8" font-size="10" font-weight="600">TIPO</text>
<text x="542" y="149" fill="#94a3b8" font-size="10" font-weight="600">SALDO</text>
<text x="642" y="149" fill="#94a3b8" font-size="10" font-weight="600">MONEDA</text>
<text x="712" y="149" fill="#94a3b8" font-size="10" font-weight="600">INTERÉS</text>
<text x="782" y="149" fill="#94a3b8" font-size="10" font-weight="600">ESTADO</text>
<text x="892" y="149" fill="#94a3b8" font-size="10" font-weight="600">ACCIONES</text>
<line x1="252" y1="166" x2="1168" y2="166" stroke="#2e3347"/>
<text x="272" y="184" fill="#e2e8f0" font-size="12">1</text>
<text x="307" y="184" fill="#94a3b8" font-size="10" font-family="monospace">ACC482910374821</text>
<rect x="442" y="172" width="63" height="18" rx="4" fill="rgba(91,141,238,0.15)"/>
<text x="449" y="184" fill="#5b8dee" font-size="9" font-weight="700">SAVINGS</text>
<text x="542" y="184" fill="#e2e8f0" font-size="12" font-weight="700">5,000.00</text>
<text x="642" y="184" fill="#e2e8f0" font-size="12">EUR</text>
<text x="712" y="184" fill="#e2e8f0" font-size="12">5.00%</text>
<rect x="782" y="172" width="56" height="18" rx="4" fill="rgba(34,197,94,0.15)"/>
<text x="789" y="184" fill="#22c55e" font-size="9" font-weight="700">ACTIVA</text>
<rect x="892" y="170" width="72" height="22" rx="5" fill="#232636" stroke="#2e3347" stroke-width="1"/>
<text x="928" y="185" fill="#e2e8f0" font-size="10" text-anchor="middle">📋 Txn</text>
<line x1="252" y1="206" x2="1168" y2="206" stroke="#2e3347"/>
<text x="272" y="224" fill="#e2e8f0" font-size="12">2</text>
<text x="307" y="224" fill="#94a3b8" font-size="10" font-family="monospace">ACC183920571049</text>
<rect x="442" y="212" width="70" height="18" rx="4" fill="rgba(34,197,94,0.15)"/>
<text x="449" y="224" fill="#22c55e" font-size="9" font-weight="700">CHECKING</text>
<text x="542" y="224" fill="#e2e8f0" font-size="12" font-weight="700">1,000.00</text>
<text x="642" y="224" fill="#e2e8f0" font-size="12">EUR</text>
<text x="712" y="224" fill="#e2e8f0" font-size="12">0.00%</text>
<rect x="782" y="212" width="56" height="18" rx="4" fill="rgba(34,197,94,0.15)"/>
<text x="789" y="224" fill="#22c55e" font-size="9" font-weight="700">ACTIVA</text>
<rect x="892" y="210" width="72" height="22" rx="5" fill="#232636" stroke="#2e3347" stroke-width="1"/>
<text x="928" y="225" fill="#e2e8f0" font-size="10" text-anchor="middle">📋 Txn</text>
<line x1="252" y1="246" x2="1168" y2="246" stroke="#2e3347"/>
<text x="272" y="264" fill="#e2e8f0" font-size="12">3</text>
<text x="307" y="264" fill="#94a3b8" font-size="10" font-family="monospace">ACC920184730291</text>
<rect x="442" y="252" width="70" height="18" rx="4" fill="rgba(34,197,94,0.15)"/>
<text x="449" y="264" fill="#22c55e" font-size="9" font-weight="700">CHECKING</text>
<text x="542" y="264" fill="#e2e8f0" font-size="12" font-weight="700">200.00</text>
<text x="642" y="264" fill="#e2e8f0" font-size="12">EUR</text>
<text x="712" y="264" fill="#e2e8f0" font-size="12">0.00%</text>
<rect x="782" y="252" width="70" height="18" rx="4" fill="rgba(239,68,68,0.15)"/>
<text x="789" y="264" fill="#ef4444" font-size="9" font-weight="700">INACTIVA</text>
<rect x="892" y="250" width="72" height="22" rx="5" fill="#232636" stroke="#2e3347" stroke-width="1"/>
<text x="928" y="265" fill="#e2e8f0" font-size="10" text-anchor="middle">📋 Txn</text>
<line x1="252" y1="286" x2="1168" y2="286" stroke="#2e3347"/>
<text x="272" y="304" fill="#e2e8f0" font-size="12">4</text>
<text x="307" y="304" fill="#94a3b8" font-size="10" font-family="monospace">ACC571039284761</text>
<rect x="442" y="292" width="63" height="18" rx="4" fill="rgba(91,141,238,0.15)"/>
<text x="449" y="304" fill="#5b8dee" font-size="9" font-weight="700">SAVINGS</text>
<text x="542" y="304" fill="#e2e8f0" font-size="12" font-weight="700">12,450.00</text>
<text x="642" y="304" fill="#e2e8f0" font-size="12">EUR</text>
<text x="712" y="304" fill="#e2e8f0" font-size="12">3.50%</text>
<rect x="782" y="292" width="56" height="18" rx="4" fill="rgba(34,197,94,0.15)"/>
<text x="789" y="304" fill="#22c55e" font-size="9" font-weight="700">ACTIVA</text>
<rect x="892" y="290" width="72" height="22" rx="5" fill="#232636" stroke="#2e3347" stroke-width="1"/>
<text x="928" y="305" fill="#e2e8f0" font-size="10" text-anchor="middle">📋 Txn</text>
</svg>
